<?xml version="1.0" encoding="UTF-8" standalone="no"?>
<!-- Created with Inkscape (http://www.inkscape.org/) -->

<svg
   width="403.6561"
   height="566.82074"
   viewBox="0 0 403.6561 566.82074"
   version="1.1"
   id="svg1"
   xml:space="preserve"
   inkscape:version="1.4 (86a8ad7, 2024-10-11)"
   sodipodi:docname="rocket.svg"
   xmlns:inkscape="http://www.inkscape.org/namespaces/inkscape"
   xmlns:sodipodi="http://sodipodi.sourceforge.net/DTD/sodipodi-0.dtd"
   xmlns="http://www.w3.org/2000/svg"
   xmlns:svg="http://www.w3.org/2000/svg"><sodipodi:namedview
     id="namedview1"
     pagecolor="#ffffff"
     bordercolor="#000000"
     borderopacity="0.25"
     inkscape:showpageshadow="2"
     inkscape:pageopacity="0.0"
     inkscape:pagecheckerboard="0"
     inkscape:deskcolor="#d1d1d1"
     inkscape:document-units="px"
     inkscape:zoom="0.99273612"
     inkscape:cx="122.89268"
     inkscape:cy="343.99877"
     inkscape:window-width="1920"
     inkscape:window-height="1057"
     inkscape:window-x="-8"
     inkscape:window-y="-8"
     inkscape:window-maximized="1"
     inkscape:current-layer="layer1" /><defs
     id="defs1" /><g
     inkscape:label="Layer 1"
     inkscape:groupmode="layer"
     id="layer1"
     transform="translate(-355.77734,-683.29662)"><rect
       style="fill:#554842;fill-opacity:1;stroke:#554842;stroke-width:6.31012;stroke-opacity:1"
       id="rect5"
       width="114.08969"
       height="60.456295"
       x="506.4184"
       y="1186.506"
       ry="20.49366"
       rx="57.044846" /><path
       id="rect4"
       style="fill:#9c85ff;fill-opacity:1;stroke:#9c85ff;stroke-width:9.89368;stroke-opacity:1"
       d="m 449.39414,1068.3934 c 67.37152,-27.3631 150.95117,-26.3738 218.14428,1.4246 37.57602,15.5456 86.89822,85.6231 86.89822,85.6231 v 0 c 0,0 -1.9459,61.293 -18.5193,61.293 H 390.98712 c -16.57334,0 -29.91577,-61.293 -29.91577,-61.293 v 0 c 0,0 50.02477,-71.4929 88.32279,-87.0477 z"
       sodipodi:nodetypes="aasasssaa" /><path
       id="rect3"
       style="fill:#dadada;fill-opacity:1;stroke:#dadada;stroke-width:9.97734;stroke-opacity:1"
       d="m 534.90966,707.35089 c 16.29793,-26.23568 37.22569,-25.04854 54.23591,1.42456 0,0 78.35095,95.18767 78.35095,153.26149 v 249.87076 c 0,58.0739 -20.9667,104.8264 -47.0105,104.8264 H 506.41843 c -26.04385,0 -46.68135,-46.7534 -47.01056,-104.8264 l -1.42456,-251.29532 c -0.32921,-58.07289 76.92635,-153.26149 76.92635,-153.26149 z"
       sodipodi:nodetypes="sssssssss" /><rect
       style="fill:none;fill-opacity:1;stroke:#9c85ff;stroke-width:11.5482;stroke-opacity:1"
       id="rect7"
       width="2.2327302"
       height="166.80304"
       x="562.5"
       y="1051.197"
       ry="0.83577526" /><ellipse
       style="fill:#9c85ff;fill-opacity:1;stroke:#b4b2b2;stroke-width:15;stroke-dasharray:none;stroke-opacity:1"
       id="path7"
       cx="565.74664"
       cy="890.42633"
       rx="63.460976"
       ry="63.96463" /></g></svg>
